<svg width="377" height="251" viewBox="0 0 377 251" fill="none" xmlns="http://www.w3.org/2000/svg">
<path d="M241.739 161.457V194.341C241.739 202.445 248.996 207.962 255.632 204.894L368.115 152.748C373.487 150.258 377 144.328 377 137.751V119.081C377 110.922 369.841 105.253 363.071 108.046L244.571 156.876C242.87 157.577 241.739 159.407 241.739 161.457Z" fill="url(#paint0_linear_216_330)"/>
<path style="mix-blend-mode:overlay" opacity="0.7" d="M241.739 175.051V194.341C241.739 202.445 248.996 207.962 255.632 204.894L368.115 152.748C373.487 150.258 377 144.328 377 137.751V119.314L241.739 175.051Z" fill="url(#paint1_linear_216_330)"/>
<path style="mix-blend-mode:multiply" opacity="0.83" d="M247.561 158.005V189.829C247.561 197.713 254.636 203.092 261.078 200.093L366.364 151.291C371.737 148.801 375.25 142.871 375.25 136.294V117.843C375.25 111.776 369.926 107.566 364.894 109.643L247.549 157.991L247.561 158.005Z" fill="url(#paint2_linear_216_330)"/>
<path d="M376.988 125.479V116.825C376.988 108.033 372.296 100.122 365.113 96.7919L255.62 46.036C248.996 42.9679 241.727 48.4851 241.727 56.589V89.4723C241.727 91.5223 242.857 93.3522 244.559 94.0539L357.771 140.71C367.106 144.562 376.988 136.733 376.988 125.479Z" fill="url(#paint3_linear_216_330)"/>
<path style="mix-blend-mode:overlay" opacity="0.7" d="M376.988 116.825C376.988 108.033 372.296 100.122 365.113 96.7919L255.62 46.036C248.996 42.9679 241.727 48.4851 241.727 56.589V89.7337C241.727 91.6599 242.724 93.3935 244.279 94.1778V72.2326C244.279 64.1287 251.548 58.6115 258.173 61.6797L376.988 116.825Z" fill="url(#paint4_linear_216_330)"/>
<path d="M13.9419 108.046C7.17151 105.253 0.012207 110.935 0.012207 119.081V137.751C0.012207 144.328 3.525 150.258 8.89752 152.748L121.38 204.894C128.005 207.962 135.273 202.445 135.273 194.341V161.457C135.273 159.407 134.143 157.577 132.441 156.876L13.9419 108.046Z" fill="url(#paint5_linear_216_330)"/>
<path style="mix-blend-mode:overlay" opacity="0.7" d="M0.012207 119.314V137.751C0.012207 144.328 3.525 150.258 8.89752 152.748L121.38 204.894C128.005 207.962 135.273 202.445 135.273 194.341V175.051L0.012207 119.314Z" fill="url(#paint6_linear_216_330)"/>
<path style="mix-blend-mode:multiply" d="M12.0942 109.656C7.06206 107.578 1.73816 111.802 1.73816 117.856V136.306C1.73816 142.883 5.25097 148.813 10.6235 151.303L115.521 199.927C122.158 203.009 129.427 197.478 129.427 189.36V158.004L12.0821 109.656H12.0942Z" fill="url(#paint7_linear_216_330)"/>
<path d="M19.2171 140.71L132.429 94.0539C134.131 93.3522 135.261 91.5223 135.261 89.4723V56.589C135.261 48.4851 128.005 42.9679 121.368 46.036L11.8755 96.7919C4.69184 100.121 0 108.033 0 116.825V125.479C0 136.733 9.86988 144.548 19.2171 140.71Z" fill="url(#paint8_linear_216_330)"/>
<path style="mix-blend-mode:overlay" opacity="0.7" d="M0.012207 116.825C0.012207 108.033 4.70404 100.122 11.8877 96.7919L121.38 46.036C128.005 42.9679 135.273 48.4851 135.273 56.589V89.7337C135.273 91.6599 134.277 93.3935 132.721 94.1778V72.2326C132.721 64.1287 125.452 58.6115 118.827 61.6797L0.012207 116.825Z" fill="url(#paint9_linear_216_330)"/>
<path d="M241.8 8.37897L174.899 231.999C171.507 243.35 162.087 251 151.5 251H140.5C136.671 251 133.96 246.735 135.188 242.635L202.004 19.0144C205.395 7.64976 214.816 0.0136719 225.403 0.0136719H236.476C240.305 0.0136719 243.015 4.27888 241.788 8.39273L241.8 8.37897Z" fill="url(#paint10_linear_216_330)"/>
<path style="mix-blend-mode:multiply" opacity="0.83" d="M241.8 8.37897L174.899 231.999C171.507 243.35 162.087 251 151.5 251H140.5C136.671 251 133.96 246.735 135.188 242.635L202.004 19.0144C205.395 7.64976 214.816 0.0136719 225.403 0.0136719H236.476C240.305 0.0136719 243.015 4.27888 241.788 8.39273L241.8 8.37897Z" fill="url(#paint11_linear_216_330)"/>
<path d="M202.004 19.0145L135.188 242.635C133.96 246.749 136.659 251 140.5 251H150.418L225.415 0C214.816 0 205.408 7.64984 202.016 19.0008L202.004 19.0145Z" fill="url(#paint12_linear_216_330)"/>
<path style="mix-blend-mode:overlay" opacity="0.7" d="M231.225 8.37904H241.8C243.027 4.26519 240.329 0 236.488 0H225.403C214.803 0 205.395 7.64984 201.992 19.0145L135.188 242.635C133.96 246.749 136.659 251 140.5 251H141.01L207.814 27.3798C211.206 16.0151 220.626 8.36528 231.225 8.36528V8.37904Z" fill="url(#paint13_linear_216_330)"/>
<defs>
<linearGradient id="paint0_linear_216_330" x1="241.739" y1="156.546" x2="376.988" y2="156.546" gradientUnits="userSpaceOnUse">
<stop stop-color="#E730CA"/>
<stop offset="1" stop-color="#71005F"/>
</linearGradient>
<linearGradient id="paint1_linear_216_330" x1="241.739" y1="162.531" x2="376.988" y2="162.531" gradientUnits="userSpaceOnUse">
<stop stop-color="white"/>
<stop offset="1" stop-color="white" stop-opacity="0"/>
</linearGradient>
<linearGradient id="paint2_linear_216_330" x1="313.989" y1="127.007" x2="309.078" y2="157.851" gradientUnits="userSpaceOnUse">
<stop stop-color="#E730CA"/>
<stop offset="1" stop-color="white" stop-opacity="0"/>
</linearGradient>
<linearGradient id="paint3_linear_216_330" x1="309.831" y1="73.8424" x2="307.667" y2="136.084" gradientUnits="userSpaceOnUse">
<stop stop-color="#E730CA"/>
<stop offset="1" stop-color="#910B7B"/>
</linearGradient>
<linearGradient id="paint4_linear_216_330" x1="297.433" y1="24.2423" x2="313.191" y2="104.955" gradientUnits="userSpaceOnUse">
<stop stop-color="white"/>
<stop offset="1" stop-color="white" stop-opacity="0"/>
</linearGradient>
<linearGradient id="paint5_linear_216_330" x1="135.273" y1="156.545" x2="0.012207" y2="156.545" gradientUnits="userSpaceOnUse">
<stop stop-color="#E730CA"/>
<stop offset="0.99" stop-color="#E730CA"/>
</linearGradient>
<linearGradient id="paint6_linear_216_330" x1="135.273" y1="162.531" x2="0.012207" y2="162.531" gradientUnits="userSpaceOnUse">
<stop stop-color="white"/>
<stop offset="1" stop-color="white" stop-opacity="0"/>
</linearGradient>
<linearGradient id="paint7_linear_216_330" x1="62.9994" y1="126.951" x2="67.9095" y2="157.753" gradientUnits="userSpaceOnUse">
<stop stop-color="#E730CA"/>
<stop offset="1" stop-color="white" stop-opacity="0"/>
</linearGradient>
<linearGradient id="paint8_linear_216_330" x1="67.1686" y1="73.8424" x2="69.3328" y2="136.084" gradientUnits="userSpaceOnUse">
<stop stop-color="#E730CA"/>
<stop offset="0.99" stop-color="#E730CA"/>
</linearGradient>
<linearGradient id="paint9_linear_216_330" x1="79.5668" y1="24.2423" x2="63.8094" y2="104.955" gradientUnits="userSpaceOnUse">
<stop stop-color="white"/>
<stop offset="1" stop-color="white" stop-opacity="0"/>
</linearGradient>
<linearGradient id="paint10_linear_216_330" x1="221.075" y1="-5.7925" x2="148.773" y2="221.626" gradientUnits="userSpaceOnUse">
<stop stop-color="#E730CA"/>
<stop offset="1" stop-color="#E730CA"/>
</linearGradient>
<linearGradient id="paint11_linear_216_330" x1="182.775" y1="123.759" x2="198.245" y2="127.421" gradientUnits="userSpaceOnUse">
<stop stop-color="#E730CA"/>
<stop offset="1" stop-color="#E730CA" stop-opacity="0"/>
</linearGradient>
<linearGradient id="paint12_linear_216_330" x1="211.643" y1="-5.00817" x2="140.317" y2="219.364" gradientUnits="userSpaceOnUse">
<stop stop-color="#E730CA"/>
<stop offset="1" stop-color="#E730CA"/>
</linearGradient>
<linearGradient id="paint13_linear_216_330" x1="221.075" y1="-5.79241" x2="148.788" y2="221.628" gradientUnits="userSpaceOnUse">
<stop stop-color="white"/>
<stop offset="1" stop-color="white" stop-opacity="0"/>
</linearGradient>
</defs>
</svg>
